<svg xmlns="http://www.w3.org/2000/svg" xmlns:xlink="http://www.w3.org/1999/xlink" width="133" height="35.41" viewBox="0 0 133 35.41"><defs><clipPath id="a"><rect width="133" height="35.41" fill="#5bc2dc"/></clipPath></defs><g clip-path="url(#a)"><path d="M12.937,4.819A7.036,7.036,0,0,0,8.315,3.366c-1.32,0-2.9.2-2.9,1.717,0,1.121,1.321,1.65,3.3,2.376,2.31.858,5.017,1.98,5.017,5.215,0,5.148-5.479,5.808-8.053,5.808a16.884,16.884,0,0,1-4.225-.462C.263,17.689,0,17.161,0,15.577V13.663A9.692,9.692,0,0,0,5.147,15.05c2.113,0,3.168-.595,3.168-1.914,0-1.254-1.12-1.716-4.092-2.838C2.177,9.5,0,8.449,0,5.479,0,1.121,4.949,0,7.921,0a10.936,10.936,0,0,1,4.158.726c.793.4.858.858.858,1.914ZM28.645.726H34.19c-.2,1.781-.264,4.62-.264,7.392v2.442a55.021,55.021,0,0,0,.4,7.393H31.155c-1.188,0-1.783-.4-1.981-1.188a7.946,7.946,0,0,1-4.819,1.585c-5.939,0-6.667-3.565-6.667-6.205V7.327a54.816,54.816,0,0,0-.33-6.6h3.3c1.518,0,2.245.923,2.245,2.442v7c0,2.773.266,4.885,3.7,4.885a6.157,6.157,0,0,0,2.244-.4v-6.2c0-2.179-.066-5.941-.2-7.722m16.37,17.228H39.471c.2-1.782.264-4.62.264-7.393V8.119a45.884,45.884,0,0,0-.4-7.392h3.168c1.188,0,1.782.4,1.979,1.187A7.952,7.952,0,0,1,49.305.33c5.942,0,6.666,3.564,6.666,6.2v4.82a55.1,55.1,0,0,0,.33,6.6H53c-1.518,0-2.244-.925-2.244-2.443v-7c0-2.773-.264-4.885-3.7-4.885a6.178,6.178,0,0,0-2.245.4v6.2c0,2.179,0,5.941.2,7.724" transform="translate(0 0)" fill="#5bc2dc"/><path d="M102.651.829a22.331,22.331,0,0,0,3.1-.2,22,22,0,0,1-.792,2.507c-.463.99-1.057,1.32-3.366,1.32h-1.98v5.874c0,2.179.065,5.941.263,7.724h-5.61c.2-1.783.264-5.546.264-7.724V4.46H92.817a7.756,7.756,0,0,0-3.5.594V3.272c0-1.519.265-2.443,2.442-2.443Zm21.716,8.449c0,5.743-3.3,9.307-9.241,9.307s-8.976-3.234-8.976-9.108c0-5.81,3.233-9.177,9.175-9.177s9.043,3.169,9.043,8.978m-13.134.066c0,3.96,1.385,5.742,4.092,5.742,2.641,0,3.96-1.782,3.96-5.742s-1.32-5.809-3.96-5.809c-2.706,0-4.092,1.849-4.092,5.809" transform="translate(-30.706 -0.103)" fill="#5bc2dc"/><path d="M163.152,19.256c-2.111,0-2.574-.793-3.894-2.707-.726-1.056-3.037-4.95-3.432-5.743-.2-.4-.264-.725.131-.925,1.717-.99,2.113-2.046,2.113-3.234,0-1.385-.528-2.574-2.508-2.574a4.968,4.968,0,0,0-1.518.2v6.27c0,2.179.066,5.941.264,7.724H148.9c.2-1.717.264-4.621.264-7.393V8.431a45.736,45.736,0,0,0-.4-7.394c2.575,0,6.007-.131,7.657-.131,2.9,0,6.733.594,6.733,4.95a4.73,4.73,0,0,1-2.244,4.157c-.264.2-.264.331,0,.728a66.138,66.138,0,0,0,6.139,8.052,19.718,19.718,0,0,1-3.895.462m14.059-6.007v.4a34.279,34.279,0,0,0,.263,4.621h-5.61a34.808,34.808,0,0,0,.264-4.621v-.4a5.72,5.72,0,0,0-.793-2.639c-1.253-2.509-4.025-7.327-6.4-9.507a33.243,33.243,0,0,1,3.7-.2c2.177,0,2.837.727,3.366,1.584A60.938,60.938,0,0,1,174.9,8.364a59.991,59.991,0,0,1,2.837-5.808,3.291,3.291,0,0,1,3.1-1.65,30.68,30.68,0,0,1,3.3.2c-1.716,1.519-4.951,6.865-6.269,9.308a5.23,5.23,0,0,0-.661,2.838" transform="translate(-51.142 -0.311)" fill="#5bc2dc"/><path d="M4.36,42.6a3.178,3.178,0,0,0-1.309-.319c-.63,0-1.039.213-1.039.687.008,1.195,2.709.721,2.709,2.758,0,1.121-.835,1.792-2.177,1.792a3.938,3.938,0,0,1-1.858-.442l.434-.81a3.106,3.106,0,0,0,1.309.311c.679,0,1.056-.238,1.056-.761,0-1.154-2.7-.687-2.7-2.741,0-1.007.9-1.711,2.111-1.711a4.419,4.419,0,0,1,1.931.425Z" transform="translate(-0.236 -14.22)" fill="#5bc2dc"/><path d="M12.61,48.292H11.5l.017-.663a2.517,2.517,0,0,1-1.5.761A1.119,1.119,0,0,1,8.829,47.1l.025-3.2h1.162L10,46.721c0,.474.2.646.548.646a1.546,1.546,0,0,0,.917-.565l.016-2.905h1.154Z" transform="translate(-3.035 -15.091)" fill="#5bc2dc"/><path d="M19.283,44.873a1.985,1.985,0,0,0-.95-.254c-.3,0-.72.058-.72.377,0,.769,2.021.319,2.021,1.923,0,.982-.925,1.424-1.891,1.424a3.377,3.377,0,0,1-1.456-.385l.409-.77a2.265,2.265,0,0,0,1.047.287c.32,0,.688-.115.688-.467,0-.778-2-.238-2-1.98,0-1.113,1.293-1.268,1.751-1.268a3.129,3.129,0,0,1,1.522.36Z" transform="translate(-5.6 -15.044)" fill="#5bc2dc"/><path d="M24.606,47.712c-.843,0-1.236-.311-1.228-1.358l.025-2.316h-.655v-.818h.663l.009-1.293h1.154l-.009,1.293h.941v.818h-.949L24.54,46.3c0,.286.139.491.4.491a1.178,1.178,0,0,0,.564-.2l.377.7a2.48,2.48,0,0,1-1.276.434" transform="translate(-7.82 -14.413)" fill="#5bc2dc"/><path d="M31.685,48.342a.681.681,0,0,1-.745-.6,1.673,1.673,0,0,1-1.194.6,1.124,1.124,0,0,1-1.211-1.194c0-.778.426-1.335,2.324-1.637l.008-.418a.45.45,0,0,0-.474-.5,1.964,1.964,0,0,0-1.187.581l-.474-.59a2.628,2.628,0,0,1,1.883-.826c.663,0,1.391.3,1.375,1.235l-.041,2.08c-.009.4.123.417.229.417a.95.95,0,0,0,.31-.114l.287.589a2.41,2.41,0,0,1-1.089.377m-2.07-1.3a.5.5,0,0,0,.556.507c.213,0,.385-.131.646-.417l.016-.917c-1.006.156-1.219.385-1.219.827" transform="translate(-9.81 -15.044)" fill="#5bc2dc"/><path d="M37.4,47.275H36.242l.033-4.395h1.161Zm.082-5.319H36.25l.009-1.015h1.227Z" transform="translate(-12.459 -14.075)" fill="#5bc2dc"/><path d="M44.026,48.245H42.864l.016-2.815c0-.474-.2-.646-.548-.646a1.523,1.523,0,0,0-.909.54L41.4,48.245H40.245l.033-4.395h1.089l-.016.638a2.563,2.563,0,0,1,1.506-.728,1.1,1.1,0,0,1,1.194,1.268Z" transform="translate(-13.836 -15.044)" fill="#5bc2dc"/><path d="M49.015,46.2c0,.851.352,1.309.916,1.309a1.215,1.215,0,0,0,.9-.425l.556.54a2.329,2.329,0,0,1-1.637.72c-1.473,0-1.948-1.105-1.948-2.226a2.23,2.23,0,0,1,2.079-2.357c1.276,0,1.809.818,1.816,2.169v.27Zm.892-1.645c-.5,0-.786.5-.827.917h1.58a.781.781,0,0,0-.753-.917" transform="translate(-16.434 -15.043)" fill="#5bc2dc"/><path d="M59.161,47.185H58.048c-.009-.2.016-.549.016-.549a1.8,1.8,0,0,1-1.342.646c-1.121,0-1.711-.867-1.711-2.111,0-1.694,1.056-2.471,2.038-2.471a1.934,1.934,0,0,1,.99.213v-.368l.016-1.866h1.162Zm-1.809-3.658c-.835,0-1.08.909-1.08,1.555,0,.54.131,1.285.818,1.285a1.147,1.147,0,0,0,.925-.556l.016-2.079a1.234,1.234,0,0,0-.679-.2" transform="translate(-18.912 -13.985)" fill="#5bc2dc"/><path d="M69.624,47.283a2.171,2.171,0,0,1-1.154-.262l-.123.163h-.8l.041-6.506h1.162l-.009,2a4.129,4.129,0,0,1-.049.647,1.728,1.728,0,0,1,1.285-.631c1.22,0,1.751.892,1.751,2.193a2.189,2.189,0,0,1-2.1,2.39m.033-3.683a1.143,1.143,0,0,0-.933.556l-.008,2.062a1.074,1.074,0,0,0,.687.229c.843,0,1.072-.941,1.072-1.555,0-.868-.311-1.293-.818-1.293" transform="translate(-23.221 -13.985)" fill="#5bc2dc"/><path d="M77.552,48.215a5.365,5.365,0,0,1-.892,1.759,1.792,1.792,0,0,1-1.285.467h-.434V49.6H75.2a.992.992,0,0,0,.761-.229,3.827,3.827,0,0,0,.549-1.138H76.35l-1.375-4.174L76.1,43.73,76.783,46a7.391,7.391,0,0,1,.262,1.244A5.364,5.364,0,0,1,77.364,46l.843-2.283.982.279Z" transform="translate(-25.764 -15.031)" fill="#5bc2dc"/><path d="M91.373,47.249l-1.358.319-2.136-3.756a7.239,7.239,0,0,1-.54-1.17s.073.761.073,1.228L87.4,47.413H86.34l.041-5.769,1.367-.3,2.119,3.732a8.494,8.494,0,0,1,.557,1.17s-.074-.753-.074-1.227l.009-3.569H91.43Z" transform="translate(-29.682 -14.212)" fill="#5bc2dc"/><path d="M99.268,48.342a.681.681,0,0,1-.745-.6,1.673,1.673,0,0,1-1.194.6,1.124,1.124,0,0,1-1.211-1.194c0-.778.426-1.335,2.324-1.637l.008-.418a.45.45,0,0,0-.474-.5,1.964,1.964,0,0,0-1.187.581l-.474-.59A2.628,2.628,0,0,1,98.2,43.76c.663,0,1.391.3,1.375,1.235l-.041,2.08c-.009.4.123.417.229.417a.95.95,0,0,0,.31-.114l.287.589a2.41,2.41,0,0,1-1.089.377m-2.07-1.3a.5.5,0,0,0,.556.507c.213,0,.385-.131.646-.417l.016-.917c-1.006.156-1.219.385-1.219.827" transform="translate(-33.044 -15.044)" fill="#5bc2dc"/><path d="M105.173,47.712c-.843,0-1.236-.311-1.228-1.358l.025-2.316h-.655v-.818h.663l.009-1.293h1.154l-.009,1.293h.941v.818h-.949l-.016,2.259c0,.286.139.491.4.491a1.178,1.178,0,0,0,.564-.2l.377.7a2.48,2.48,0,0,1-1.276.434" transform="translate(-35.518 -14.413)" fill="#5bc2dc"/><path d="M113.318,48.292h-1.1l.017-.663a2.521,2.521,0,0,1-1.5.761,1.119,1.119,0,0,1-1.195-1.293l.026-3.2h1.162l-.016,2.824c0,.474.2.646.548.646a1.543,1.543,0,0,0,.916-.565l.016-2.905h1.154Z" transform="translate(-37.657 -15.091)" fill="#5bc2dc"/><path d="M119.963,44.9a.973.973,0,0,0-.254-.041,1.181,1.181,0,0,0-1,.761l-.033,2.618h-1.146l.033-4.395h1.113l-.016.753a1.22,1.22,0,0,1,1.473-.8Z" transform="translate(-40.406 -15.043)" fill="#5bc2dc"/><path d="M123.33,46.2c0,.851.352,1.309.917,1.309a1.212,1.212,0,0,0,.9-.425l.556.54a2.327,2.327,0,0,1-1.636.72c-1.473,0-1.948-1.105-1.948-2.226a2.231,2.231,0,0,1,2.079-2.357c1.276,0,1.809.818,1.816,2.169v.27Zm.892-1.645c-.5,0-.785.5-.827.917h1.58a.782.782,0,0,0-.753-.917" transform="translate(-41.983 -15.043)" fill="#5bc2dc"/><path d="M136.42,48.342a.681.681,0,0,1-.745-.6,1.674,1.674,0,0,1-1.195.6,1.124,1.124,0,0,1-1.211-1.194c0-.778.426-1.335,2.324-1.637l.009-.418a.451.451,0,0,0-.475-.5,1.962,1.962,0,0,0-1.186.581l-.474-.59a2.627,2.627,0,0,1,1.882-.826c.663,0,1.391.3,1.375,1.235l-.041,2.08c-.009.4.123.417.229.417a.946.946,0,0,0,.311-.114l.287.589a2.412,2.412,0,0,1-1.089.377m-2.07-1.3a.5.5,0,0,0,.556.507c.213,0,.385-.131.646-.417l.016-.917c-1.007.156-1.219.385-1.219.827" transform="translate(-45.816 -15.044)" fill="#5bc2dc"/><path d="M144.757,48.245h-1.162l.016-2.815c0-.474-.2-.646-.548-.646a1.523,1.523,0,0,0-.909.54l-.024,2.921h-1.154l.033-4.395H142.1l-.016.638a2.563,2.563,0,0,1,1.506-.728,1.1,1.1,0,0,1,1.194,1.268Z" transform="translate(-48.465 -15.044)" fill="#5bc2dc"/><path d="M152.683,47.185H151.57c-.009-.2.016-.549.016-.549a1.8,1.8,0,0,1-1.342.646c-1.121,0-1.711-.867-1.711-2.111,0-1.694,1.056-2.471,2.038-2.471a1.934,1.934,0,0,1,.99.213v-.368l.016-1.866h1.162Zm-1.809-3.658c-.835,0-1.08.909-1.08,1.555,0,.54.131,1.285.818,1.285a1.147,1.147,0,0,0,.925-.556l.016-2.079a1.234,1.234,0,0,0-.679-.2" transform="translate(-51.064 -13.985)" fill="#5bc2dc"/><path d="M166.853,47.409H165.5L164.39,43.66a2.874,2.874,0,0,1-.221-1.236,7.228,7.228,0,0,1-.213,1.261l-1.13,3.723h-1.35l-1.768-5.819,1.186-.262,1.056,3.707a10.93,10.93,0,0,1,.278,1.391,7.533,7.533,0,0,1,.254-1.309l1.1-3.674h1.358l1.048,3.592a7.881,7.881,0,0,1,.262,1.391,10.3,10.3,0,0,1,.278-1.415l1.1-3.683,1.048.254Z" transform="translate(-54.905 -14.208)" fill="#5bc2dc"/><path d="M177.115,48.342a.681.681,0,0,1-.745-.6,1.674,1.674,0,0,1-1.195.6,1.124,1.124,0,0,1-1.211-1.194c0-.778.426-1.335,2.324-1.637l.009-.418a.451.451,0,0,0-.475-.5,1.962,1.962,0,0,0-1.186.581l-.474-.59a2.627,2.627,0,0,1,1.882-.826c.663,0,1.391.3,1.375,1.235l-.041,2.08c-.009.4.123.417.229.417a.946.946,0,0,0,.311-.114l.287.589a2.412,2.412,0,0,1-1.089.377m-2.07-1.3a.5.5,0,0,0,.556.507c.213,0,.385-.131.646-.417l.016-.917c-1.007.156-1.219.385-1.219.827" transform="translate(-59.806 -15.044)" fill="#5bc2dc"/><path d="M183.019,47.712c-.844,0-1.236-.311-1.228-1.358l.026-2.316h-.655v-.818h.663l.009-1.293h1.153l-.009,1.293h.942v.818h-.949l-.017,2.259c0,.286.14.491.4.491a1.178,1.178,0,0,0,.564-.2l.377.7a2.481,2.481,0,0,1-1.276.434" transform="translate(-62.28 -14.413)" fill="#5bc2dc"/><path d="M188.2,46.2c0,.851.352,1.309.916,1.309a1.215,1.215,0,0,0,.9-.425l.556.54a2.329,2.329,0,0,1-1.637.72c-1.473,0-1.948-1.105-1.948-2.226a2.23,2.23,0,0,1,2.079-2.357c1.276,0,1.809.818,1.816,2.169v.27Zm.892-1.645c-.5,0-.786.5-.827.917h1.579a.781.781,0,0,0-.753-.917" transform="translate(-64.282 -15.043)" fill="#5bc2dc"/><path d="M197.023,44.9a.973.973,0,0,0-.254-.041,1.181,1.181,0,0,0-1,.761l-.033,2.618h-1.146l.033-4.395h1.113l-.016.753a1.22,1.22,0,0,1,1.473-.8Z" transform="translate(-66.897 -15.043)" fill="#5bc2dc"/></g></svg>