<svg id="レイヤー_1" data-name="レイヤー 1" xmlns="http://www.w3.org/2000/svg" viewBox="0 0 506.49 117.33"><defs><style>.cls-1{fill:#51c6db;}</style></defs><path class="cls-1" d="M1074.25,247.27c-3.44-3.06-9.63-4.81-16-4.81-4.59,0-10.09.66-10.09,5.68,0,3.7,4.58,5.45,11.46,7.85,8,2.84,17.41,6.54,17.41,17.23,0,17-19,19.2-28,19.2a61.62,61.62,0,0,1-14.67-1.52c-4.13-1.09-5-2.84-5-8.07V276.5c4.58,3.05,11.91,4.58,17.88,4.58,7.34,0,11-2,11-6.32,0-4.16-3.91-5.68-14.23-9.39-7.1-2.61-14.66-6.11-14.66-15.92,0-14.4,17.19-18.12,27.5-18.12a39.92,39.92,0,0,1,14.45,2.41c2.75,1.31,3,2.83,3,6.32Zm54.56-13.53h19.26a239.84,239.84,0,0,0-.92,24.43v8.07c0,9.17.45,19.2,1.37,24.44h-11c-4.12,0-6.18-1.31-6.88-3.92a28.6,28.6,0,0,1-16.73,5.23c-20.64,0-23.15-11.78-23.15-20.51V255.55a173.79,173.79,0,0,0-1.15-21.81h11.46c5.27,0,7.79,3,7.79,8.07v23.13c0,9.15.92,16.14,12.84,16.14a22.48,22.48,0,0,0,7.8-1.31V259.26c0-7.2-.23-19.64-.69-25.52m56.85,56.94H1166.4a242.74,242.74,0,0,0,.93-24.44v-8.07c0-9.16-.24-19.2-1.37-24.43h11c4.13,0,6.19,1.31,6.88,3.93a28.44,28.44,0,0,1,16.73-5.23c20.64,0,23.15,11.77,23.15,20.5v15.92a172,172,0,0,0,1.16,21.82h-11.46c-5.29,0-7.8-3.05-7.8-8.08V259.48c0-9.16-.91-16.14-12.84-16.14a22.19,22.19,0,0,0-7.79,1.31v20.5c0,7.2,0,19.63.68,25.53" transform="translate(-1003.21 -231.33)"/><path class="cls-1" d="M1279.19,233.74a80.59,80.59,0,0,0,10.78-.66,68.65,68.65,0,0,1-2.74,8.3c-1.61,3.27-3.68,4.36-11.69,4.36h-6.89v19.41c0,7.2.23,19.63.92,25.52h-19.48c.68-5.89.91-18.32.91-25.52V245.74h-6c-5.26,0-9.84.65-12.14,2v-7.64c0-4.35.91-6.32,7.79-6.32Zm75.44,27.92c0,19-11.47,30.76-32.11,30.76s-31.18-10.68-31.18-30.11c0-19.19,11.24-30.32,31.88-30.32s31.41,10.48,31.41,29.67m-45.63.22c0,13.09,4.81,19,14.22,19,9.16,0,13.75-5.89,13.75-19s-4.59-19.2-13.75-19.2c-9.41,0-14.22,6.11-14.22,19.2" transform="translate(-1003.21 -231.33)"/><path class="cls-1" d="M1419.5,294c-7.33,0-8.94-2.62-13.53-8.95-2.52-3.49-10.54-16.36-11.93-19-.67-1.3-.9-2.39.47-3,6-3.27,7.56-6.76,7.56-10.69,0-4.58-2-8.5-8.93-8.5a28.55,28.55,0,0,0-6.43.64v20.73c0,7.2.23,19.63.92,25.53h-18.79a243.3,243.3,0,0,0,.92-24.44v-8.07c0-9.16-.24-19.19-1.38-24.43,8.94,0,22-.45,27.74-.45,10.08,0,23.6,2,23.6,16.37a15.69,15.69,0,0,1-8,13.75c-.92.65-.92,1.09,0,2.4,6.42,9.16,14.21,19.42,21.31,26.61A71,71,0,0,1,1419.5,294m49.06-19.85v1.31a107.27,107.27,0,0,0,.91,15.27H1450a110.8,110.8,0,0,0,.92-15.27V274.1c0-2.4-.68-4.8-2.76-8.73-4.35-8.28-14-24.22-22.23-31.42a121.49,121.49,0,0,1,12.84-.66c7.56,0,9.85,2.42,11.69,5.25A196,196,0,0,1,1460.54,258c2.51-5.68,7.57-15.72,9.86-19.21,1.83-2.61,4.35-5.46,10.78-5.46a112.53,112.53,0,0,1,11.45.66c-6,5-17.19,22.69-21.78,30.77a16.56,16.56,0,0,0-2.29,9.38" transform="translate(-1003.21 -231.33)"/><path class="cls-1" d="M1003.4,319.17c1.13,0,2.89-.11,3-.15,3.4-.16,5.39-.24,6.48-.24a19.75,19.75,0,0,1,5.38.55c3.35.9,5.11,3.24,5.11,6.86s-1.91,5.89-5.54,6.79a5.67,5.67,0,0,1,3.94,1.91,7.08,7.08,0,0,1,1.76,4.84c0,5.3-4.18,8.11-12.13,8.11-1.72,0-4.92-.08-8.19-.24Zm6.05,24.26.7,0c.74,0,1.32,0,1.71,0,3.79,0,5.82-1.48,5.82-4.21,0-2.93-1.56-4-5.74-4h-3l0,8.15Zm2.84-12.44c3.55,0,5.31-1.33,5.31-4s-1.6-4-4.92-4c-.43,0-1.6,0-3.7.12l0,7.84Z" transform="translate(-1003.21 -231.33)"/><path class="cls-1" d="M1030.54,347.6l.2-28.43h16.34v4.41h-10.72l0,7.33h10.61v4.37h-10.65l0,8h10.84v4.36Z" transform="translate(-1003.21 -231.33)"/><path class="cls-1" d="M1068.45,347.6h-6l-9.91-27.53,5.54-1.44,6,17.63a46.74,46.74,0,0,1,1.56,6.63l0,.15a36.27,36.27,0,0,1,1.76-6.82l6.51-17.59,5,1.44Z" transform="translate(-1003.21 -231.33)"/><path class="cls-1" d="M1085,347.6l.19-28.43h16.34v4.41h-10.72l0,7.33h10.61v4.37h-10.65l0,8h10.84v4.36Z" transform="translate(-1003.21 -231.33)"/><path class="cls-1" d="M1125.9,348.31l-8.89-13.5,1.4-2.53c4.1-.47,5.77-1.84,5.77-4.68,0-3-1.83-4.53-5.34-4.53-.39,0-.7,0-1.68.08s-1.25,0-1.64,0l-.15,24.41h-5.66l.2-28.43h.27c4.41-.27,7.37-.39,9-.39,7.22,0,10.81,2.62,10.81,8,0,4.13-2.31,7-6.64,8.27a7.85,7.85,0,0,1,1.68,1.91l6.12,9.05Z" transform="translate(-1003.21 -231.33)"/><path class="cls-1" d="M1155.54,348.11l-2.81-8.11h-10.22l-3,8.07-5-1.17,10.92-27.73h5.54l10.18,27.66Zm-6.09-17.59a35.19,35.19,0,0,1-1.67-6.78,50.55,50.55,0,0,1-1.8,6.78l-1.79,5.11h7.1Z" transform="translate(-1003.21 -231.33)"/><path class="cls-1" d="M1188.34,346.16a33.37,33.37,0,0,1-9.68,1.91c-8.89,0-14.54-5.54-14.54-14.23a15.63,15.63,0,0,1,23.05-13.22L1185,324.2a12.64,12.64,0,0,0-5.42-1.2c-5.3,0-9.32,4.48-9.32,10.41,0,6.24,3.51,10.3,8.89,10.3a12.94,12.94,0,0,0,3.71-.51l.08-9.4h5.57Z" transform="translate(-1003.21 -231.33)"/><path class="cls-1" d="M1196,347.6l.2-28.43h16.34v4.41h-10.73l0,7.33h10.61v4.37h-10.65l0,8h10.85v4.36Z" transform="translate(-1003.21 -231.33)"/><path class="cls-1" d="M1253,348.66l-3.12-3.47a12.45,12.45,0,0,1-8.46,2.88c-6.48,0-10.46-3.19-10.46-8.46,0-3.32,1.8-5.81,6.28-8.81-2.42-2.38-3.2-3.87-3.2-5.89,0-3.75,3.2-6.17,8.16-6.17,4.17,0,6.86,2.19,6.86,5.58,0,2.42-1.33,4.29-4.72,6.59l5.34,5.93a24.15,24.15,0,0,0,.47-5.3h4.8a20,20,0,0,1-1.68,9.32l4.17,4.68Zm-13.14-14.74c-2.31,1.63-3,2.8-3,4.79,0,3.12,2.07,5.11,5.27,5.11a7,7,0,0,0,5-1.87Zm4.29-9.48a2,2,0,0,0-2.31-2.11,2.28,2.28,0,0,0-2.37,2.19c0,.89.19,1.21,2.1,3.27C1243.6,326.35,1244.15,325.61,1244.15,324.44Z" transform="translate(-1003.21 -231.33)"/><path class="cls-1" d="M1280,323.58l-.08,7.76h10.65v4.45h-10.65l-.08,11.81h-5.66l.2-28.43h16.34v4.41Z" transform="translate(-1003.21 -231.33)"/><path class="cls-1" d="M1324.56,333.1c0,8.65-6.24,15-14.7,15-8.85,0-14.27-5.5-14.27-14.43,0-8.69,6.12-14.9,14.7-14.9S1324.56,324.4,1324.56,333.1Zm-22.89.46c0,6.6,2.92,10.26,8.23,10.26,5.15,0,8.54-4.13,8.54-10.53s-3.08-10.33-8.23-10.33S1301.67,327.09,1301.67,333.56Z" transform="translate(-1003.21 -231.33)"/><path class="cls-1" d="M1358.06,333.1c0,8.65-6.24,15-14.7,15-8.85,0-14.27-5.5-14.27-14.43,0-8.69,6.12-14.9,14.7-14.9S1358.06,324.4,1358.06,333.1Zm-22.89.46c0,6.6,2.93,10.26,8.23,10.26,5.15,0,8.54-4.13,8.54-10.53s-3.08-10.33-8.23-10.33S1335.17,327.09,1335.17,333.56Z" transform="translate(-1003.21 -231.33)"/><path class="cls-1" d="M1364.58,319.17c4.44-.27,7.68-.39,9.55-.39,9.75,0,15.09,4.92,15.09,13.85s-6.55,15.21-16.06,15.21c-1.6,0-6.05-.12-7.61-.2-.86,0-.86,0-1.17,0Zm5.57,24.34h.47c1.37,0,2.5.08,3,.08,5.53,0,9.51-4.49,9.51-10.73s-3.35-9.86-9-9.86c-.78,0-2,0-3.63.11h-.35l-.07,20.4Z" transform="translate(-1003.21 -231.33)"/><path class="cls-1" d="M1424.52,348.11l-2.81-8.11h-10.22l-3,8.07-5-1.17,10.92-27.73h5.54l10.18,27.66Zm-6.09-17.59a35.19,35.19,0,0,1-1.67-6.78,50.55,50.55,0,0,1-1.8,6.78l-1.79,5.11h7.1Z" transform="translate(-1003.21 -231.33)"/><path class="cls-1" d="M1435.87,319.17c4.29-.23,8.11-.39,10.06-.39,6.71,0,10.18,2.93,10.18,8.62,0,5.85-4.06,9.09-11.43,9.09h-3.28l-.07,11.11h-5.66Zm8.85,13c3.43,0,5.5-1.68,5.5-4.52s-1.8-4.53-4.8-4.53c-.78,0-1.64,0-3.94.12l-.08,8.93Z" transform="translate(-1003.21 -231.33)"/><path class="cls-1" d="M1477.28,348.11l-2.8-8.11h-10.22l-3,8.07-5-1.17,10.92-27.73h5.54l10.18,27.66Zm-6.08-17.59a36,36,0,0,1-1.68-6.78,50.61,50.61,0,0,1-1.79,6.78l-1.79,5.11H1473Z" transform="translate(-1003.21 -231.33)"/><path class="cls-1" d="M1507.51,324.16a12.67,12.67,0,0,0-5.42-1.2c-5.31,0-9.32,4.52-9.32,10.49,0,6.2,3.51,10.26,8.89,10.26a10.91,10.91,0,0,0,5.58-1.53l2.18,3.71a19.45,19.45,0,0,1-8.27,2.18c-8.85,0-14.51-5.57-14.51-14.23a15.63,15.63,0,0,1,23-13.22Z" transform="translate(-1003.21 -231.33)"/></svg>